<?xml version="1.0" encoding="utf-8"?>
<!-- Generator: Adobe Illustrator 27.9.0, SVG Export Plug-In . SVG Version: 6.00 Build 0)  -->
<svg version="1.1" id="Calque_1" xmlns="http://www.w3.org/2000/svg" xmlns:xlink="http://www.w3.org/1999/xlink" x="0px" y="0px"
	 viewBox="0 0 24 24" style="enable-background:new 0 0 24 24;" xml:space="preserve">
<style type="text/css">
	.st0{fill:#FFFFFF;}
</style>
<path class="st0" d="M7,21v-2h4v-3.1c-0.8-0.2-1.5-0.5-2.2-1c-0.6-0.5-1.1-1.1-1.4-1.9c-1.2-0.1-2.3-0.7-3.1-1.6C3.4,10.4,3,9.3,3,8
	V7c0-0.5,0.2-1,0.6-1.4C4,5.2,4.5,5,5,5h2V3h10v2h2c0.6,0,1,0.2,1.4,0.6C20.8,6,21,6.4,21,7v1c0,1.3-0.4,2.4-1.3,3.3
	c-0.8,0.9-1.9,1.5-3.1,1.6c-0.3,0.8-0.8,1.4-1.4,1.9c-0.6,0.5-1.4,0.9-2.2,1V19h4v2H7z M7,10.8V7H5v1c0,0.6,0.2,1.2,0.6,1.7
	C5.9,10.2,6.4,10.6,7,10.8z M12,14c0.8,0,1.5-0.3,2.1-0.9c0.6-0.6,0.9-1.3,0.9-2.1V5H9v6c0,0.8,0.3,1.5,0.9,2.1
	C10.5,13.7,11.2,14,12,14z M17,10.8c0.6-0.2,1.1-0.6,1.5-1.1C18.8,9.2,19,8.6,19,8V7h-2V10.8z"/>
</svg>
