<?xml version="1.0" encoding="utf-8"?>
<!-- Generator: Adobe Illustrator 27.9.0, SVG Export Plug-In . SVG Version: 6.00 Build 0)  -->
<svg version="1.1" id="Calque_1" xmlns="http://www.w3.org/2000/svg" xmlns:xlink="http://www.w3.org/1999/xlink" x="0px" y="0px"
	 viewBox="0 0 24 24" style="enable-background:new 0 0 24 24;" xml:space="preserve">
<style type="text/css">
	.st0{fill:#FFFFFF;}
</style>
<path class="st0" d="M10.5,15h3l-0.6-3.2c0.3-0.2,0.6-0.4,0.8-0.7c0.2-0.3,0.3-0.7,0.3-1.1c0-0.6-0.2-1-0.6-1.4S12.6,8,12,8
	s-1,0.2-1.4,0.6S10,9.4,10,10c0,0.4,0.1,0.7,0.3,1.1c0.2,0.3,0.5,0.6,0.8,0.7L10.5,15z M12,22c-2.3-0.6-4.2-1.9-5.7-4S4,13.6,4,11.1
	V5l8-3l8,3v6.1c0,2.5-0.8,4.8-2.3,6.9C16.2,20.1,14.3,21.4,12,22z M12,19.9c1.7-0.5,3.2-1.6,4.3-3.3c1.1-1.7,1.7-3.5,1.7-5.5V6.4
	l-6-2.2L6,6.4v4.7c0,2,0.6,3.9,1.7,5.5S10.3,19.4,12,19.9z"/>
</svg>
