<?xml version="1.0" encoding="utf-8"?>
<!-- Generator: Adobe Illustrator 27.9.0, SVG Export Plug-In . SVG Version: 6.00 Build 0)  -->
<svg version="1.1" id="Calque_1" xmlns="http://www.w3.org/2000/svg" xmlns:xlink="http://www.w3.org/1999/xlink" x="0px" y="0px"
	 viewBox="0 0 24 24" style="enable-background:new 0 0 24 24;" xml:space="preserve">
<style type="text/css">
	.st0{fill:#FFFFFF;}
</style>
<path class="st0" d="M11,22v-8.3c-0.3-0.2-0.5-0.4-0.7-0.7c-0.2-0.3-0.3-0.6-0.3-1c0-0.6,0.2-1,0.6-1.4S11.4,10,12,10s1,0.2,1.4,0.6
	S14,11.4,14,12c0,0.4-0.1,0.7-0.3,1c-0.2,0.3-0.4,0.5-0.7,0.7V22H11z M5.1,19.2c-0.9-0.9-1.7-2-2.3-3.2C2.3,14.8,2,13.4,2,12
	c0-1.4,0.3-2.7,0.8-3.9S4,5.8,4.9,4.9s2-1.6,3.2-2.1S10.6,2,12,2s2.7,0.3,3.9,0.8s2.3,1.2,3.2,2.1s1.6,2,2.1,3.2
	C21.7,9.3,22,10.6,22,12c0,1.4-0.3,2.8-0.8,4s-1.3,2.3-2.3,3.2l-1.4-1.4c0.8-0.7,1.4-1.6,1.8-2.6c0.4-1,0.7-2.1,0.7-3.2
	c0-2.2-0.8-4.1-2.3-5.7C16.1,4.8,14.2,4,12,4S7.9,4.8,6.3,6.3S4,9.8,4,12c0,1.1,0.2,2.2,0.7,3.2c0.4,1,1.1,1.9,1.8,2.6L5.1,19.2z
	 M7.9,16.4c-0.6-0.5-1.1-1.2-1.4-2C6.2,13.7,6,12.9,6,12c0-1.7,0.6-3.1,1.8-4.3S10.3,6,12,6s3.1,0.6,4.2,1.8S18,10.3,18,12
	c0,0.9-0.2,1.7-0.5,2.5s-0.8,1.4-1.4,1.9L14.7,15c0.4-0.4,0.7-0.8,1-1.4c0.2-0.5,0.4-1.1,0.4-1.6c0-1.1-0.4-2-1.2-2.8S13.1,8,12,8
	s-2,0.4-2.8,1.2S8,10.9,8,12c0,0.6,0.1,1.2,0.4,1.7c0.2,0.5,0.6,1,1,1.3L7.9,16.4z"/>
</svg>
