<?xml version="1.0" encoding="utf-8"?>
<!-- Generator: Adobe Illustrator 27.9.0, SVG Export Plug-In . SVG Version: 6.00 Build 0)  -->
<svg version="1.1" id="Calque_1" xmlns="http://www.w3.org/2000/svg" xmlns:xlink="http://www.w3.org/1999/xlink" x="0px" y="0px"
	 viewBox="0 0 120.4 26.3" style="enable-background:new 0 0 120.4 26.3;" xml:space="preserve">
<style type="text/css">
	.st0{fill:#1FFFA9;}
</style>
<g>
	<g>
		<path class="st0" d="M7.8,24.4l0.9,1.9H6.9L0,19.4l2.2-4.3h10.2L9.5,21h3.9l3.6-6.9L4.8,9.9l3.9-8L7.8,0.1h24.3l1,1.9l-2.9,5.8H20
			l2.2-4.4h-3.9l-2.7,5.6l10.3,3.7l0.9,1.9l-4.9,9.8H7.9L7.8,24.4z"/>
		<path class="st0" d="M62,0l-3.7,7.3H48.1l2-3.9h-3.9l-2.7,5.4h14.2L55.9,12H41.8l-4.4,8.9h3.9l3.7-7.3h10.3l-5.4,10.6H25.4
			L36.6,1.9L35.7,0H62z"/>
		<path class="st0" d="M88.8,1.9l-4.7,9.5H73.9l4-8.1h-3.9l-8.8,17.6H69l4.1-8.2h10.3l-4.8,9.8L75,24.3H55.8l-1.4-2.3l10-20L63.5,0
			h24.5L88.8,1.9z"/>
		<path class="st0" d="M120.4,0l-1.5,3.3h-9.4L99,24.3l0.9,1.9h-1.9l-6.9-6.9l8-16h-9.3L91.4,0H120.4z"/>
	</g>
</g>
</svg>
